<?xml version="1.0" encoding="UTF-8" standalone="no"?>
<svg
   viewBox="0 0 548.484 437.44197"
   width="548.48401"
   height="437.44196"
   version="1.1"
   id="svg470"
   xmlns="http://www.w3.org/2000/svg"
   xmlns:svg="http://www.w3.org/2000/svg">
  <desc
     id="desc310">Part Studio 1 - Sketch 1.dxf - scale = 1.000000, origin = (0.000000, 0.000000), method = manual</desc>
  <defs
     id="defs324" />
  <g
     id="g452"
     transform="translate(-119.99382,-654.28618)">
    <path
       style="fill:none;stroke:#000000"
       d="M 120.49381,654.78621 V 1091.2282"
       id="path388" />
    <path
       style="fill:none;stroke:#000000"
       d="m 120.49381,1091.2282 h 547.484"
       id="path390" />
    <path
       style="fill:none;stroke:#000000"
       d="m 120.49381,654.78621 h 547.484"
       id="path392" />
    <path
       style="fill:none;stroke:#000000"
       d="M 467.14986,756.07121 V 1005.5182"
       id="path394" />
    <path
       style="fill:none;stroke:#000000"
       d="M 455.81128,756.07121 V 1005.5182"
       id="path396" />
    <path
       style="fill:none;stroke:#000000"
       d="M 301.98481,756.07121 V 1005.5182"
       id="path398" />
    <path
       style="fill:none;stroke:#000000"
       d="m 301.98481,1005.5182 h 11.338"
       id="path400" />
    <path
       style="fill:none;stroke:#000000"
       d="m 301.98481,756.07121 h 11.338"
       id="path402" />
    <path
       style="fill:none;stroke:#000000"
       d="m 187.84281,1005.5182 h 11.339"
       id="path404" />
    <path
       style="fill:none;stroke:#000000"
       d="m 187.84281,756.07121 h 11.339"
       id="path406" />
    <path
       style="fill:none;stroke:#000000"
       d="M 199.18181,756.07121 V 1005.5182"
       id="path408" />
    <path
       d="m 164.22072,1060.3232 a 6.614175,6.614175 0 0 0 -13.22835,0 6.614175,6.614175 0 0 0 13.22835,0 z"
       style="fill:none;stroke:#000000"
       id="path410" />
    <path
       style="fill:none;stroke:#000000"
       d="M 187.84281,756.07121 V 1005.5182"
       id="path412" />
    <path
       d="m 648.00025,691.81925 a 6.614175,6.614175 0 0 0 -13.22835,0 6.614175,6.614175 0 0 0 13.22835,0 z"
       style="fill:none;stroke:#000000"
       id="path414" />
    <path
       style="fill:none;stroke:#000000"
       d="m 376.81911,756.07121 h 11.3386"
       id="path416" />
    <path
       style="fill:none;stroke:#000000"
       d="m 376.81911,1005.5182 h 11.3386"
       id="path418" />
    <path
       d="m 164.22072,691.81925 a 6.614175,6.614175 0 0 0 -13.22835,0 6.614175,6.614175 0 0 0 13.22835,0 z"
       style="fill:none;stroke:#000000"
       id="path420" />
    <path
       style="fill:none;stroke:#000000"
       d="M 376.81911,756.07121 V 1005.5182"
       id="path422" />
    <path
       style="fill:none;stroke:#000000"
       d="M 388.15771,756.07121 V 1005.5182"
       id="path424" />
    <path
       style="fill:none;stroke:#000000"
       d="m 599.81081,1005.5182 h 11.339"
       id="path426" />
    <path
       style="fill:none;stroke:#000000"
       d="m 599.81081,756.07121 h 11.339"
       id="path428" />
    <path
       style="fill:none;stroke:#000000"
       d="M 313.32281,756.07121 V 1005.5182"
       id="path430" />
    <path
       style="fill:none;stroke:#000000"
       d="m 455.81128,1005.5182 h 11.33858"
       id="path432" />
    <path
       style="fill:none;stroke:#000000"
       d="m 455.81128,756.07121 h 11.33858"
       id="path434" />
    <path
       style="fill:none;stroke:#000000"
       d="M 530.26801,756.73921 V 1006.1882"
       id="path436" />
    <path
       d="m 648.00025,1060.3232 a 6.614175,6.614175 0 0 0 -13.22835,0 6.614175,6.614175 0 0 0 13.22835,0 z"
       style="fill:none;stroke:#000000"
       id="path438" />
    <path
       style="fill:none;stroke:#000000"
       d="M 667.97781,654.78621 V 1091.2282"
       id="path440" />
    <path
       style="fill:none;stroke:#000000"
       d="M 541.60651,756.73921 V 1006.1882"
       id="path442" />
    <path
       style="fill:none;stroke:#000000"
       d="m 541.60651,1006.1882 h -11.3385"
       id="path444" />
    <path
       style="fill:none;stroke:#000000"
       d="m 541.60651,756.73921 h -11.3385"
       id="path446" />
    <path
       style="fill:none;stroke:#000000"
       d="M 611.14981,756.07121 V 1005.5182"
       id="path448" />
    <path
       style="fill:none;stroke:#000000"
       d="M 599.81081,756.07121 V 1005.5182"
       id="path450" />
  </g>
</svg>
