**ABCDEFGHIJKLMNOPQRSTUVWXYZabcdefghijklmnopqrstuvwxyz**************************
**PARASOLID !"#$%&'()*+,-./:;<=>?@[\]^_`{|}~0123456789**************************
**PART1;
MC=unknown;
MC_MODEL=unknown;
MC_ID=unknown;
OS=unknown;
OS_RELEASE=unknown;
FRU=Parasolid 35.1.246;
APPL=Onshape;
SITE=unknown;
USER=unknown;
FORMAT=text;
GUISE=transmit;
KEY=BTGapi::writeModels_.xmt;
FILE=BTGapi::writeModels_.xmt;
DATE=2024-03-18T09:05:49 (UTC);
**PART2;
SCH=SCH_3501246_35102;
USFLD_SIZE=0;
**PART3;
**END_OF_HEADER*****************************************************************
T51 : TRANSMIT FILE created by modeller version 350124623 SCH_3501246_35102_1300
6231 0 12 36 CCCI7 lattice222 0 CCCI4 mesh1006 0 I8 polyline1008 0 CCCCCCCDI5 ow
ner1040 0 CCCI16 boundary_lattice222 0 CCCI13 boundary_mesh1006 0 I17 boundary_p
olyline1008 0 CCCA16 index_map_offset0 0 1 dA9 index_map82 0 A17 node_id_index_m
ap82 0 A20 schema_embedding_map82 0 A5 child12 0 A14 lowest_node_id0 0 1 dA16 me
sh_offset_data206 0 Z1 1537 2 3 0 0 0 0 0 0 0 1e3 1e-8 0 4 5 1 0 1 2 6 0 7 8 9 0
 0 10 11 12 0 0 0 0 0 0 0 81 255 1 2 1514 13 1 14 0 0 0 15 70 11 CI9 list_type0
 0 1 uI10 notransmit0 0 1 lCCCDCCDI12 finger_index0 0 1 dI12 finger_block1012 0
 CZ3 0 4 T1 0 0 5 20 1 16 16 13 255 6 195 0 1 0 17 0 0 18 0 54 255 7 1381 0 19 2
0 0 0 +.014 .017 .01491062079593984 0 0 1 .00403431457505076 .000965685424949238
 1 0 0 31 255 8 1389 0 21 22 0 0 +.014 .02103431457505075 .01491062079593984 -1
 0 0 0 0 1 .000965685424949238 29 255 9 1299 0 12 23 0 -.002 .017 .0149106207959
3984 19 9 CCCCCCI5 frame230 0 CA5 owner12 0 Z10 68 0 1 18 0 24 0 V0 16 255 11 13
05 25 ?26 0 27 28 0 0 1 18 255 12 1296 29 26 0 30 9 ?1 81 1 29 1447 31 12 0 0 32
 33 34 17 255 26 0 35 36 37 12 38 11 0 39 +18 30 1287 40 41 12 42 23 ?1 81 1 40
 1449 31 30 0 0 33 43 44 17 41 0 45 46 39 30 47 27 0 48 +18 42 1278 49 50 30 51
 52 ?1 29 23 1290 0 30 52 9 .003 .022 .01491062079593984 29 52 1281 0 42 53 23 .
014 .022 .01491062079593984 29 53 1272 0 51 54 52 .019 .017 .01491062079593984 1
8 51 1269 55 56 42 57 53 ?1 29 54 1263 0 57 58 53 .019 .005 .01491062079593984 1
8 57 1260 59 60 51 61 54 ?1 29 58 1254 0 61 62 54 .014 0 .01491062079593984 18 6
1 1251 63 64 57 65 58 ?1 29 62 1245 0 65 66 58 -.002 .005 .01491062079593984 18
 65 1242 67 68 61 69 62 ?1 29 66 1241 0 69 70 62 .003 0 .01491062079593984 18 69
 1238 71 72 65 73 66 ?1 29 70 1231 0 73 74 66 .003 .000965685424949238 .01587630
62208891 18 73 1229 75 76 69 77 70 ?1 29 74 1227 0 77 78 70 .014 .00096568542494
9238 .0158763062208891 18 77 1225 79 80 73 81 74 ?1 29 78 1223 0 81 82 74 .01803
431457505075 .005 .0158763062208891 18 81 1221 83 84 77 85 78 ?1 29 82 1219 0 85
 86 78 .01803431457505075 .017 .0158763062208891 18 85 1217 87 88 81 89 82 ?1 29
 86 1215 0 89 90 82 .014 .02103431457505075 .0158763062208891 18 89 1213 91 92 8
5 93 86 ?1 29 90 1211 0 93 94 86 .003 .02103431457505075 .0158763062208891 18 93
 1209 43 95 89 96 90 ?1 29 94 1207 0 96 97 90 -.001034314575050762 .005 .0158763
062208891 18 96 1205 98 99 93 100 94 ?1 29 97 1204 0 100 101 94 -.00103431457505
0762 .017 .0158763062208891 18 100 1202 33 102 96 103 97 ?1 29 101 987 0 103 104
 97 .003 .022 0 18 103 984 105 106 100 107 101 ?1 29 104 983 0 107 108 101 .014
 .022 0 18 107 980 109 110 103 111 104 ?1 29 108 979 0 111 112 104 -.002 .017 0
 18 111 976 113 36 107 114 108 ?1 29 112 975 0 114 115 108 -.002 .005 0 18 114 9
72 116 117 111 118 112 ?1 29 115 961 0 118 119 112 .019 .017 0 18 118 958 120 12
1 114 122 115 ?1 29 119 957 0 122 123 115 .019 .005 0 18 122 954 124 125 118 126
 119 ?1 29 123 899 0 126 127 119 .003 0 0 18 126 896 128 129 122 130 123 ?1 29 1
27 895 0 130 131 123 .014 0 0 18 130 892 132 133 126 134 127 ?1 29 131 163 0 135
 136 127 0 .00230367103066969 .0158763062208891 18 135 144 137 138 134 139 131 ?
1 29 136 39 0 134 140 131 .017 .0196963289693303 .0158763062208891 18 134 37 141
 142 130 135 136 ?1 29 140 435 0 139 143 136 0 .0196963289693303 .01587630622088
91 18 139 369 144 145 135 146 140 ?1 29 143 673 0 146 0 140 .017 .00230367103066
969 .0158763062208891 18 146 606 147 148 139 0 143 ?1 81 1 147 716 31 146 0 0 14
9 141 150 17 148 0 151 142 142 146 152 153 0 154 -15 255 151 627 0 148 155 0 17
 142 0 151 148 148 134 154 156 0 157 +17 152 0 158 145 159 134 148 153 0 0 +16 1
53 12 160 ?152 161 162 163 0 0 1 17 154 0 164 138 157 146 142 156 0 159 -15 164
 177 0 138 165 0 17 138 0 164 166 154 135 159 167 0 168 +17 157 0 164 154 166 13
4 145 169 0 152 -16 156 588 170 ?142 171 172 173 0 0 1 17 159 0 158 152 168 146
 138 167 0 0 -15 158 179 0 168 17 0 17 168 0 158 159 145 135 174 162 0 175 -16 1
67 169 176 ?138 169 177 178 0 0 1 81 1 176 232 31 167 0 0 0 179 180 16 169 170 1
79 ?145 181 167 182 0 0 1 16 177 893 183 ?184 167 161 185 0 0 1 30 255 178 193 0
 167 185 182 0 +.017 .00230367103066969 .0158763062208891 -1 0 0 30 185 191 0 17
7 186 178 0 +.017 0 0 -1 0 0 30 182 194 0 169 178 187 0 +.017 .0196963289693303
 .0158763062208891 -1 0 0 30 187 902 0 181 182 188 0 -.003 0 .00793815311044455
 0 0 1 16 181 1239 189 ?129 190 169 187 0 0 1 30 188 907 0 190 187 191 0 +.014 0
 .00793815311044455 0 0 1 16 190 905 192 ?193 194 181 188 0 0 1 30 191 964 0 194
 188 195 0 +.019 .017 .0158763062208891 0 -2185298585000035e-31 1 16 194 962 196
 ?197 198 190 191 0 0 1 30 195 969 0 198 191 199 0 -.019 .005 .00793815311044455
 0 0 1 16 198 1261 200 ?125 201 194 195 0 0 1 31 199 990 0 201 195 202 0 -.014 .
017 0 0 0 1 1 0 0 .005 16 201 988 203 ?121 204 198 199 0 0 1 31 202 995 0 204 19
9 205 0 -.003 .017 0 0 0 1 1 0 0 .005 16 204 993 206 ?106 207 201 202 0 0 1 31 2
05 1000 0 207 202 208 0 -.003 .005 0 0 0 1 1 0 0 .005 16 207 998 209 ?117 210 20
4 205 0 0 1 31 208 1005 0 210 205 211 0 -.014 .005 0 0 0 1 1 0 0 .005 16 210 100
3 212 ?133 213 207 208 0 0 1 30 211 1010 0 213 208 214 0 --.002 .017 -1734723475
976805e-33 0 -2185298585000035e-31 1 16 213 1297 215 ?36 216 210 211 0 0 1 30 21
4 1015 0 216 211 217 0 +-.002 .005 .00793815311044455 0 0 1 16 216 1013 218 ?37
 219 213 214 0 0 1 30 217 1020 0 219 214 220 0 -.014 .022 -642074183476791e-33 0
 -2185298585000035e-31 1 16 219 1279 221 ?110 222 216 217 0 0 1 30 220 1025 0 22
2 217 223 0 +.003 .022 .0158763062208891 0 -2185298585000035e-31 1 16 222 1023 2
24 ?48 225 219 220 0 0 1 30 223 1208 0 225 220 226 0 --.001034314575050762 .0011
51835515334846 .0158763062208891 0 1 0 16 225 1206 227 ?99 228 222 223 0 0 1 31
 226 1212 0 228 223 229 0 +.003 .017 .0158763062208891 0 0 1 1 0 0 .004034314575
05076 16 228 1210 230 ?102 231 225 226 0 0 1 30 229 1216 0 231 226 232 0 +.003 .
02103431457505075 .0158763062208891 -1 0 0 16 231 1214 233 ?95 234 228 229 0 0 1
 31 232 1220 0 234 229 235 0 +.014 .017 .0158763062208891 0 0 1 1 0 0 .004034314
57505076 16 234 1218 236 ?92 237 231 232 0 0 1 30 235 1224 0 237 232 238 0 +.018
03431457505075 .001151835515334846 .0158763062208891 0 1 0 16 237 1222 239 ?88 2
40 234 235 0 0 1 31 238 1228 0 240 235 241 0 +.014 .005 .0158763062208891 0 0 1
 1 0 0 .00403431457505076 16 240 1226 242 ?84 243 237 238 0 0 1 30 241 1232 0 24
3 238 244 0 -.017 .000965685424949238 .0158763062208891 -1 0 0 16 243 1230 245 ?
80 246 240 241 0 0 1 31 244 1235 0 246 241 247 0 +.003 .005 .0158763062208891 0
 0 1 1 0 0 .00403431457505076 16 246 1233 248 ?249 250 243 244 0 0 1 31 247 1248
 0 250 244 251 0 -.003 .005 .01491062079593984 0 0 1 1 0 0 .005 16 250 1246 252
 ?253 254 246 247 0 0 1 30 251 1257 0 254 247 255 0 +.017 0 .01491062079593984 -
1 0 0 16 254 1255 256 ?72 257 250 251 0 0 1 31 255 1266 0 257 251 258 0 -.014 .0
05 .01491062079593984 0 0 1 1 0 0 .005 16 257 1264 259 ?64 260 254 255 0 0 1 30
 258 1275 0 260 255 261 0 -.019 .011 .01491062079593984 0 1 0 16 260 1273 262 ?6
0 263 257 258 0 0 1 31 261 1284 0 263 258 264 0 -.014 .017 .01491062079593984 0
 0 1 1 0 0 .005 16 263 1282 265 ?56 266 260 261 0 0 1 30 264 1293 0 266 261 267
 0 -.014 .022 .01491062079593984 -1 0 0 16 266 1291 268 ?50 27 263 264 0 0 1 31
 267 1302 0 27 264 28 0 -.003 .017 .01491062079593984 0 0 1 1 0 0 .005 16 27 130
0 269 ?41 11 266 267 0 0 1 30 28 1307 0 11 267 270 0 +-.002 .011 .01491062079593
984 0 1 0 31 270 1396 0 271 28 272 0 +.003 .000965685424949238 .0149106207959398
4 -1 0 0 0 0 1 .000965685424949238 16 271 1364 273 ?76 274 0 270 0 0 1 31 272 13
95 0 274 270 275 0 +-.001034314575050762 .005 .01491062079593984 0 -1 0 0 0 -1 .
000965685424949238 16 274 1362 276 ?68 277 271 272 0 0 1 31 275 1394 0 277 272 2
78 0 +.014 .000965685424949238 .01491062079593984 -1 0 0 0 0 1 .0009656854249492
38 16 277 1359 279 ?280 281 274 275 0 0 1 31 278 1393 0 281 275 282 0 +-.0010343
14575050762 .017 .01491062079593984 0 -1 0 0 0 -1 .000965685424949238 16 281 135
6 283 ?284 285 277 278 0 0 1 31 282 1392 0 285 278 286 0 +.01803431457505075 .00
5 .01491062079593984 0 -1 0 0 0 -1 .000965685424949238 16 285 1353 287 ?288 289
 281 282 0 0 1 31 286 1391 0 289 282 22 0 +.003 .02103431457505075 .014910620795
93984 -1 0 0 0 0 1 .000965685424949238 16 289 1350 290 ?291 292 285 286 0 0 1 31
 22 1390 0 292 286 8 0 +.01803431457505075 .017 .01491062079593984 0 -1 0 0 0 -1
 .000965685424949238 16 292 1347 293 ?294 21 289 22 0 0 1 81 1 293 1475 31 292 0
 0 242 295 296 17 294 0 297 298 299 85 300 292 0 0 +16 21 1344 295 ?301 302 292
 8 0 0 1 81 1 295 1476 31 21 0 0 293 265 303 17 301 0 304 305 306 42 307 21 0 0
 +16 302 830 308 ?309 310 21 311 0 0 1 81 1 308 875 31 302 0 0 312 313 314 17 30
9 0 315 309 309 0 316 302 0 0 +16 310 800 312 ?317 318 302 319 0 0 1 31 311 865
 0 302 319 320 0 +.01513548009097575 .0184827111661434 0 0 0 -1 -1 0 0 .00055102
859831823 31 319 867 0 310 0 311 0 +.00155946728773415 .00523541588336229 0 0 0
 -1 -1 0 0 .000526973653619823 38 12 CCCCCCCCCCCA17 intersection_data204 0 Z320
 864 0 318 311 321 0 +322 323 324 325 325 326 16 318 827 327 ?328 172 310 320 0
 0 1 38 321 863 0 172 320 329 0 +322 330 331 332 332 333 51 255 322 187 0 17 334
 335 336 -.017 .011 .011 -1 0 0 .00997018053511044 0 0 1 51 323 857 0 337 330 33
8 339 +.01513548009097575 .0184827111661434 .0189 0 0 -1 .00055102859831823 -1 0
 0 40 255 21 324 0 1 21 735878468859208e-19 .3741199178412975 ??.014584451492657
52 .0184827111661434 .004411105289445905 .0146493251155798 .01822331599259095 .0
04127721922544545 .01476208999612474 .01807747993186885 .003977623072157905 .014
89538172103756 .0179867421258621 .003887339852811805 .01502976919472005 .0179419
175617273 .003843584663473115 .0151782228971096 .01793334283006245 .003835276899
73181 .0153077868942065 .0179593156352827 .003860502413250315 .0154249376735958
 .0180138329047276 .0039140527882819 .01555783753440325 .0181288090523521 .00402
9735916208215 .0156617018284532 .01831923884686335 .00422997469685219 .015677020
11128275 .0185845292518182 .00452856925162531 .01556213094388415 .01883142532684
975 .00482964528955821 .0154423348461998 .01894039301564255 .00497051754627064 .
01531443071801695 .01900387255117315 .00505504212905828 .01520033011614445 .0190
2991038982725 .00509025897064518 .01507746531577675 .01903067722533245 .00509130
10564743 .01497284149104492 .0190091911771382 .00506220945209867 .01484451160592
204 .01895065331734385 .00498405354660597 .01470379872438516 .0188251782651515 .
00482172475351774 .01459574901868104 .01859371966025155 .00453935594354521 .0145
8445149265738 .01848271116614345 .00441110528944591 41 3 CI8 term_use0 0 1 cCZ1
 325 H?.01458445149265738 .01848271116614345 .00441110528944591 204 2 17 INTERSE
CTION_DATA17 Intersection data7 uv_type0 0 1 u6 values0 1 1 fT84 326 4 2.2927605
5972729 .00241554850734247 0 .0144888947105541 2.331295548895065 .00235067488442
021 5.79304780450527 .01477227807745546 2.35228645594418 .002237910003875265 5.4
5691566199276 .0149223769278421 2.36512498748509 .00210461827896243 5.1632354755
3752 .0150126601471882 2.37140772342549 .00197023080527994 4.90542851021093 .015
0564153365269 2.37260521630331 .001821777102890415 4.6347418556585 .015064723100
2682 2.368973731968 .00169221310579348 4.39435441789931 .0150394975867497 2.3613
09015213045 .001575062326404205 4.15931652501083 .0149859472117181 2.34494990093
534 .001442162465596756 3.83903222362009 .01487026408379178 2.31723322072807 .00
1338298171546826 3.44279388910177 .0146700253031478 2.27716890799928 .0013229798
88717264 2.95574645806672 .0143714307483747 2.23811355587881 .001437869056115846
 2.45637413849382 .0140703547104418 2.220250236935245 .001557665153800195 2.1614
1654280181 .01392948245372936 2.209647830616715 .001685569281983075 1.9015515637
0134 .01384495787094172 2.20525500765221 .001799669883855545 1.68875875079344 .0
1380974102935482 2.205125238324635 .001922534684223235 1.465316331386364 .013808
6989435257 2.208752646199375 .002027158508955085 1.271179052126766 .013837790547
90134 2.2185466364576 .00215548839407796 1.014498277479394 .01391594645339402 2.
239125337944855 .00229620127561484 .670662492952591 .01407827524648226 2.2757475
7274955 .002404250981318955 .2028450539762495 .0143606440564548 2.29276055972729
 .002415548507342625 4407417099183435e-29 .0144888947105541 14 255 337 840 340 ?
341 342 343 6 323 -0 0 341 342 24 51 330 860 0 341 0 323 344 +.00155946728773415
 .00523541588336229 .0189 0 0 -1 .000526973653619823 -1 0 0 50 255 338 659 0 342
 323 345 0 +.019 .011 .00793815311044455 1 0 0 0 1 0 141 255 339 320 339 339 323
 14 342 644 346 ?337 155 347 6 338 +0 0 337 155 24 50 345 658 0 155 338 348 0 +.
017 .011 .00793815311044455 1 0 0 0 1 0 14 155 648 349 ?342 350 151 6 345 -0 0 3
42 350 24 50 348 422 0 350 345 351 0 +-.002 .011 .00793815311044455 -1 0 0 0 -1
 0 14 350 407 352 ?155 353 35 6 348 +0 0 155 353 24 50 351 421 0 353 348 354 0 +
0 .011 .00793815311044455 -1 0 0 0 -1 0 14 353 411 355 ?350 356 357 6 351 -0 0 3
50 356 24 50 354 183 0 356 351 358 0 +.017 .022 .00793815311044455 0 -1 -2185298
585000035e-31 0 2185298585000035e-31 -1 14 356 172 359 ?353 360 361 6 354 -0 0 3
53 360 24 50 358 184 0 360 354 362 0 +.017 .011 0 0 0 1 1 0 0 14 360 174 363 ?35
6 364 365 6 358 -0 0 356 364 24 50 362 185 0 364 358 334 0 +.017 0 .007938153110
44455 0 -1 0 0 0 -1 14 364 176 366 ?360 165 367 6 362 +0 0 360 165 24 50 334 186
 0 165 362 322 0 +.017 .001151835515334846 .0158763062208891 0 0 1 1 0 0 14 165
 178 368 ?364 17 369 6 334 +0 0 364 17 24 81 1 368 1516 370 165 371 0 372 366 37
3 14 17 180 372 ?165 0 374 6 322 +0 0 165 0 24 15 369 1203 0 99 165 164 13 24 69
 0 0 0 0 0 0 10 17 17 99 0 369 249 102 96 375 225 0 376 +17 249 0 369 80 99 73 3
77 246 0 0 +17 102 0 369 99 95 100 378 228 0 379 +17 375 0 380 284 376 100 99 22
5 0 0 -17 376 0 380 375 38 96 68 274 0 377 -15 380 1334 0 284 381 0 17 38 0 380
 376 284 65 26 11 0 253 -17 68 0 382 383 377 65 376 274 0 38 +17 377 0 382 68 76
 96 249 246 0 0 -15 382 1338 0 68 384 0 17 76 0 382 377 383 73 385 271 0 386 +17
 383 0 382 76 68 69 253 250 0 385 -17 385 0 387 388 386 69 76 271 0 0 -17 386 0
 387 385 280 73 80 243 0 249 -15 387 1336 0 280 389 0 17 280 0 387 386 388 77 39
0 277 0 0 +17 80 0 369 84 249 77 386 243 0 391 +17 84 0 369 88 80 81 391 240 0 2
98 +17 391 0 392 390 288 77 84 240 0 280 -15 392 1332 0 288 393 0 17 390 0 392 3
94 391 61 280 277 0 388 -17 288 0 392 391 394 81 395 285 0 0 +17 394 0 392 288 3
90 57 64 257 0 0 -17 395 0 297 299 298 57 288 285 0 394 -15 297 1328 0 294 396 0
 17 299 0 297 294 395 51 60 260 0 0 -17 298 0 297 395 294 81 88 237 0 288 -17 88
 0 369 92 84 85 298 237 0 397 +17 92 0 369 95 88 89 397 234 0 307 +17 397 0 398
 300 307 85 92 234 0 294 -15 398 1324 0 300 19 0 17 300 0 398 399 397 51 294 292
 0 299 -17 307 0 398 397 399 89 301 21 0 306 -17 399 0 398 307 300 42 56 263 0 3
01 -17 306 0 304 301 400 89 95 231 0 0 -15 304 1326 0 301 401 0 17 400 0 304 306
 305 93 291 289 0 378 -17 95 0 369 102 92 93 306 231 0 400 +17 305 0 304 400 301
 30 50 266 0 291 -17 291 0 402 47 378 30 400 289 0 0 +17 378 0 402 291 379 93 10
2 228 0 0 -15 402 1330 0 291 403 0 17 379 0 402 378 47 100 284 281 0 375 -17 47
 0 402 379 291 12 41 27 0 284 -17 284 0 380 38 375 12 379 281 0 0 +14 403 1329 4
04 ?393 396 402 6 405 +0 0 393 396 24 81 1 404 1533 370 403 406 0 407 408 409 14
 393 1331 408 ?381 403 392 6 410 +0 0 381 403 24 14 396 1327 407 ?403 401 297 6
 411 +0 0 403 401 24 54 405 1384 0 403 410 411 0 +.003 .017 .01491062079593984 0
 0 1 .00403431457505076 .000965685424949238 1 0 0 54 410 1385 0 393 412 405 0 +.
014 .005 .01491062079593984 0 0 1 .00403431457505076 .000965685424949238 1 0 0 5
1 411 1383 0 396 405 20 0 +.01803431457505075 .001151835515334846 .0149106207959
3984 0 1 0 .000965685424949238 0 0 1 51 20 1382 0 401 411 7 0 +.017 .02103431457
505075 .01491062079593984 1 0 0 .000965685424949238 0 0 -1 14 401 1325 413 ?396
 19 304 6 20 +0 0 396 19 24 81 1 413 1531 370 401 414 0 415 407 416 14 19 1323 4
15 ?401 417 398 6 7 +0 0 401 417 24 81 1 415 1530 370 19 418 0 419 413 420 14 41
7 1106 419 ?19 421 422 6 423 +0 0 19 421 24 81 1 419 1529 370 417 424 0 425 415
 426 14 421 1085 425 ?417 427 45 6 428 +0 0 417 427 24 15 422 1107 0 429 417 0 5
1 423 1118 0 417 428 430 0 +.014 .017 .00793815311044455 0 2185298585000035e-31
 -1 .005 0 1 2185298585000035e-31 51 428 1097 0 421 431 423 0 +.003 .017 .007938
15311044454 0 2185298585000035e-31 -1 .005 0 1 2185298585000035e-31 54 430 1388
 0 384 423 432 0 +.003 .005 .01491062079593984 0 0 1 .00403431457505076 .0009656
85424949238 1 0 0 14 384 1337 433 ?0 389 382 6 430 +0 0 0 389 24 51 432 1387 0 3
89 430 412 0 +.017 .000965685424949238 .01491062079593984 -1 0 0 .00096568542494
9238 0 0 1 14 389 1335 434 ?384 381 387 6 432 +0 0 384 381 24 51 412 1386 0 381
 432 410 0 +-.001034314575050762 .011 .01491062079593984 0 1 0 .0009656854249492
38 0 0 1 14 381 1333 435 ?389 393 380 6 412 +0 0 389 393 24 81 1 435 1535 370 38
1 436 0 408 434 437 80 7 CCCCCDI12 legal_owners0 16 1 lCZ1 370 0 438 8001 0 0 0
 0 3 5 0 0 0 FFFFTFTFFFFFFFFF2 81 1 436 1499 31 381 0 435 418 439 440 81 1 408 1
534 370 393 441 0 404 435 442 81 1 434 1536 370 389 443 0 435 433 444 83 255 3 4
37 .615686274509804 .811764705882353 .929411764705882 81 1 443 1501 31 389 0 434
 439 414 445 81 1 433 1537 370 384 446 0 434 0 447 83 3 444 .615686274509804 .81
1764705882353 .929411764705882 81 1 446 1496 31 384 0 433 406 441 448 83 3 447 .
615686274509804 .811764705882353 .929411764705882 80 1 31 449 450 9000 0 0 0 0 3
 6 0 0 0 FFTFTFTTFFFFFFFF1 81 1 406 1495 31 403 0 404 221 446 451 81 1 441 1497
 31 393 0 408 446 418 452 82 255 3 448 20 1 2 81 1 418 1498 31 19 0 415 441 436
 453 82 3 452 20 2 2 82 3 453 20 3 2 81 1 221 1494 31 219 0 0 196 406 454 82 3 4
51 20 0 2 81 1 196 1493 31 194 0 0 192 221 455 82 3 454 20 31 1 81 1 192 1492 31
 190 0 0 200 196 456 82 3 455 20 30 1 81 1 200 1491 31 198 0 0 189 192 457 82 3
 456 20 29 1 81 1 189 1490 31 181 0 0 218 200 458 82 3 457 20 28 1 81 1 218 1489
 31 216 0 0 224 189 459 82 3 458 20 27 1 81 1 224 1488 31 222 0 0 215 218 460 82
 3 459 20 26 1 81 1 215 1487 31 213 0 0 233 224 461 82 3 460 20 25 1 81 1 233 14
86 31 231 0 0 268 215 462 82 3 461 20 24 1 81 1 268 1485 31 266 0 0 245 233 463
 82 3 462 20 23 1 81 1 245 1484 31 243 0 0 256 268 464 82 3 463 20 22 1 81 1 256
 1483 31 254 0 0 239 245 465 82 3 464 20 21 1 81 1 239 1482 31 237 0 0 262 256 4
66 82 3 465 20 20 1 81 1 262 1481 31 260 0 0 227 239 467 82 3 466 20 19 1 81 1 2
27 1480 31 225 0 0 25 262 468 82 3 467 20 18 1 81 1 25 1479 31 11 0 0 236 227 46
9 82 3 468 20 17 1 81 1 236 1478 31 234 0 0 265 25 470 82 3 469 20 16 1 81 1 265
 1477 31 263 0 0 295 236 471 82 3 470 20 15 1 82 3 471 20 14 1 79 255 9 450 BTI/
DetId81 1 439 1500 31 396 0 407 436 443 472 81 1 414 1502 31 401 0 413 443 473 4
74 82 3 445 20 6 2 81 1 473 1503 31 421 0 425 414 475 476 82 3 474 20 7 2 81 1 4
25 1528 370 421 473 0 477 419 478 81 1 475 1504 31 427 0 477 473 479 480 82 3 47
6 20 8 2 14 427 1064 477 ?421 481 482 6 431 +0 0 421 481 24 81 1 477 1527 370 42
7 475 0 483 425 484 81 1 479 1505 31 481 0 483 475 424 485 82 3 480 20 9 2 14 48
1 1043 483 ?427 341 486 6 335 +0 0 427 341 24 81 1 483 1526 370 481 479 0 487 47
7 488 81 1 424 1506 31 417 0 419 479 489 490 82 3 485 20 10 2 81 1 489 1507 31 3
50 0 352 424 491 492 82 3 490 20 11 2 81 1 352 1521 370 350 489 0 355 349 493 81
 1 491 1508 31 342 0 346 489 494 495 82 3 492 20 12 2 81 1 346 1523 370 342 491
 0 349 340 496 81 1 494 1509 31 364 0 366 491 497 498 82 3 495 20 13 2 81 1 366
 1517 370 364 494 0 368 363 499 81 1 497 1510 31 356 0 359 494 371 500 82 3 498
 20 14 2 81 1 359 1519 370 356 497 0 363 355 501 81 1 371 1511 31 165 0 368 497
 0 502 82 3 500 20 15 2 82 3 502 20 16 2 81 1 363 1518 370 360 32 0 366 359 503
 81 1 355 1520 370 353 504 0 359 352 505 83 3 501 .615686274509804 .811764705882
353 .929411764705882 81 1 504 492 31 353 0 355 506 149 507 83 3 505 .61568627450
9804 .811764705882353 .929411764705882 81 1 506 487 31 508 0 0 509 504 510 81 1
 149 715 31 1 0 511 504 147 512 82 3 507 10 4 2 81 1 511 1512 513 1 149 14 0 0 5
14 82 3 512 6 0 3 80 1 513 515 516 8038 0 0 0 0 0 0 0 0 0 TTTTTTTTTTTTTFTF10 81
 1 14 1513 515 1 511 2 0 0 517 98 255 6 514 80 97 114 116 32 49 80 1 515 518 519
 8017 0 0 0 0 0 0 0 0 0 TTTTTTTTTTTTTFTF3 84 255 6 517 Part 179 13 519 SDL/TYSA_
NAME79 14 516 SDL/TYSA_UNAME16 508 325 506 ?166 520 171 521 0 0 1 81 1 509 482 3
1 162 0 0 144 506 522 82 3 510 10 5 1 16 162 120 509 ?174 153 520 523 0 0 1 81 1
 144 481 31 139 0 0 137 509 524 82 3 522 10 0 1 81 1 137 480 31 135 0 0 179 144
 525 82 3 524 10 1 0 81 1 179 233 31 169 0 0 176 137 526 82 3 525 10 0 0 82 3 52
6 6 5 1 17 174 0 357 175 175 139 168 162 0 166 +16 520 973 527 ?528 162 508 529
 0 0 1 31 523 157 0 162 163 186 0 +0 .011 .011 1 0 0 0 0 -1 .00997018053511044 3
1 163 14 0 153 521 523 0 +.017 .011 .011 1 0 0 0 0 -1 .00997018053511044 30 186
 190 0 161 523 185 0 +.017 .022 0 -1 0 0 16 161 981 530 ?531 177 153 186 0 0 1 8
1 1 530 1181 31 161 0 0 183 32 532 17 531 0 361 48 110 103 533 161 0 46 +15 361
 171 0 48 356 0 17 48 0 361 50 531 30 46 222 0 305 +17 110 0 361 531 50 107 429
 219 0 533 +17 533 0 534 121 106 107 531 161 0 535 -17 46 0 45 536 41 103 48 222
 0 0 -15 45 1086 0 39 421 0 17 536 0 45 39 46 111 106 204 0 0 -17 39 0 45 41 536
 12 36 213 0 47 -17 106 0 534 533 528 103 536 204 0 531 +15 534 173 0 537 360 0
 17 528 0 534 106 117 111 538 520 0 536 +17 117 0 534 528 184 114 539 207 0 538
 +17 538 0 35 37 36 114 528 520 0 540 -15 35 410 0 37 350 0 17 37 0 35 26 538 65
 540 216 0 0 +17 36 0 35 538 26 111 39 213 0 528 +17 540 0 482 539 253 114 37 21
6 0 0 -15 482 1065 0 541 427 0 17 539 0 482 541 540 126 117 207 0 0 -17 253 0 48
2 540 541 65 383 250 0 37 +17 541 0 482 253 539 69 129 181 0 383 -17 129 0 367 5
42 72 126 541 181 0 184 +15 367 175 0 193 364 0 17 542 0 367 193 129 130 184 177
 0 543 -17 72 0 367 129 193 69 388 254 0 541 +17 184 0 534 117 133 126 542 177 0
 539 +17 133 0 534 184 537 130 544 210 0 542 +17 537 0 534 133 121 122 545 171 0
 544 -17 544 0 486 546 543 122 133 210 0 0 -15 486 1044 0 546 481 0 17 546 0 486
 64 544 57 125 198 0 395 -17 543 0 486 544 64 130 193 190 0 0 -17 64 0 486 543 5
46 61 394 257 0 193 +17 193 0 367 72 542 61 543 190 0 390 +17 125 0 347 545 60 1
22 546 198 0 537 +15 347 647 0 197 342 0 17 545 0 347 197 125 118 537 171 0 547
 +17 60 0 347 125 197 57 299 260 0 546 +17 197 0 347 60 545 51 547 194 0 300 +17
 547 0 422 535 56 118 197 194 0 0 -17 535 0 422 429 547 107 121 201 0 0 -17 56 0
 422 547 429 51 399 263 0 197 +17 429 0 422 56 535 42 110 219 0 399 -17 121 0 53
4 537 533 118 535 201 0 545 +16 171 955 548 ?545 508 156 329 0 0 1 81 1 548 1179
 31 171 0 0 527 183 549 30 329 669 0 171 321 173 0 +.019 .011 0 0 1 0 30 173 667
 0 156 329 529 0 +.017 .02084816448466515 .0158763062208891 0 1 0 30 529 432 0 5
20 173 521 0 +-.002 .011 0 0 1 0 30 521 430 0 508 529 163 0 +0 .0208481644846651
5 .0158763062208891 0 1 0 81 1 527 1177 31 520 0 0 203 548 550 81 1 183 1180 31
 177 0 0 548 530 551 82 3 549 19 19 1 82 3 551 19 20 1 81 1 203 1175 31 201 0 0
 212 527 552 82 3 550 19 17 1 81 1 212 1171 31 210 0 0 209 203 553 82 3 552 19 1
5 1 81 1 209 1167 31 207 0 0 206 212 554 82 3 553 19 11 1 81 1 206 1163 31 204 0
 0 109 209 555 82 3 554 19 7 1 81 1 109 1159 31 107 0 0 120 206 556 82 3 555 19
 3 1 81 1 120 1157 31 118 0 0 132 109 557 82 3 556 19 15 0 81 1 132 1155 31 130
 0 0 124 120 558 82 3 557 19 13 0 81 1 124 1153 31 122 0 0 128 132 559 82 3 558
 19 11 0 81 1 128 1151 31 126 0 0 116 124 560 82 3 559 19 9 0 81 1 116 1149 31 1
14 0 0 105 128 561 82 3 560 19 7 0 81 1 105 1147 31 103 0 0 113 116 562 82 3 561
 19 5 0 81 1 113 1145 31 111 0 0 563 105 564 82 3 562 19 3 0 81 1 563 878 31 17
 0 372 565 113 566 82 3 564 19 1 0 81 1 372 1515 370 17 563 0 0 368 567 81 1 565
 877 31 337 0 340 313 563 568 82 3 566 18 2 2 81 1 340 1524 370 337 565 0 346 48
7 569 81 1 313 876 31 341 0 487 308 565 570 82 3 568 18 1 2 14 341 810 487 ?481
 337 571 6 330 -0 0 481 337 24 81 1 487 1525 370 341 313 0 340 483 572 82 3 570
 18 0 2 83 3 572 .615686274509804 .811764705882353 .929411764705882 15 571 813 0
 573 341 574 17 573 0 571 573 573 0 575 172 0 0 +15 574 814 0 317 341 0 17 317 0
 574 317 317 0 576 310 0 0 +17 576 0 365 576 576 0 317 310 0 0 -15 365 767 0 576
 360 577 15 577 760 0 316 360 534 17 316 0 577 316 316 0 309 302 0 0 -17 575 0 3
74 575 575 0 573 172 0 0 -16 172 797 578 ?573 156 318 321 0 0 1 81 1 578 872 31
 172 0 0 579 327 580 81 1 579 728 31 155 0 349 170 578 581 81 1 327 873 31 318 0
 0 578 312 582 82 3 580 18 0 1 81 1 312 874 31 310 0 0 327 308 583 82 3 582 18 1
 1 82 3 583 18 2 1 81 1 349 1522 370 155 579 0 352 346 584 81 1 170 723 31 156 0
 0 160 579 585 82 3 581 14 4 2 81 1 160 718 31 153 0 0 141 170 586 82 3 585 14 5
 1 81 1 141 717 31 134 0 0 147 160 587 82 3 586 14 0 1 82 3 587 14 1 0 83 3 584
 .615686274509804 .811764705882353 .929411764705882 15 374 781 0 575 17 588 15 5
88 775 0 589 17 158 17 589 0 588 589 589 0 328 318 0 0 -17 328 0 343 328 328 0 5
89 318 0 0 +15 343 843 0 328 337 315 15 315 844 0 309 337 0 83 3 569 .6156862745
09804 .811764705882353 .929411764705882 83 3 567 .615686274509804 .8117647058823
53 .929411764705882 17 388 0 387 280 385 61 72 254 0 0 -17 50 0 361 110 48 42 30
5 266 0 429 +81 1 32 1193 31 360 0 363 530 29 590 82 3 532 19 21 1 82 3 590 19 9
 2 15 357 390 0 175 353 0 17 175 0 357 174 174 135 166 508 0 0 -17 166 0 164 157
 138 139 175 508 0 0 +83 3 503 .615686274509804 .811764705882353 .92941176470588
2 83 3 499 .615686274509804 .811764705882353 .929411764705882 83 3 496 .61568627
4509804 .811764705882353 .929411764705882 83 3 493 .615686274509804 .81176470588
2353 .929411764705882 83 3 488 .615686274509804 .811764705882353 .92941176470588
2 51 335 1055 0 481 322 431 0 +.014 .005 .00793815311044455 0 0 1 .005 1 0 0 51
 431 1076 0 427 335 428 0 +.003 .005 .00793815311044455 0 0 1 .005 1 0 0 83 3 48
4 .615686274509804 .811764705882353 .929411764705882 83 3 478 .615686274509804 .
811764705882353 .929411764705882 81 1 407 1532 370 396 439 0 413 404 591 82 3 47
2 20 5 2 83 3 591 .615686274509804 .811764705882353 .929411764705882 83 3 442 .6
15686274509804 .811764705882353 .929411764705882 82 3 440 20 4 2 79 15 438 SDL/T
YSA_COLOUR83 3 426 .615686274509804 .811764705882353 .929411764705882 83 3 420 .
615686274509804 .811764705882353 .929411764705882 83 3 416 .615686274509804 .811
764705882353 .929411764705882 83 3 409 .615686274509804 .811764705882353 .929411
764705882 83 3 373 .615686274509804 .811764705882353 .929411764705882 141 344 32
1 344 344 330 141 336 320 592 592 322 141 592 321 336 336 322 40 20 331 0 1 20 5
32361625264212e-19 .390858137491897 ??.00103249363411433 .00523541588336229 .002
86525539030859 .001077444382374526 .00502244839683421 .00302044006638303 .001210
775268666252 .00484030183976503 .003160190150425 .001345165286150786 .0047539848
0446648 .003228784259856145 .001483580486838962 .00471393489132201 .003261144441
70481 .00163172504982934 .00471341966936604 .003261562971169085 .001762006212167
38 .00474891900187295 .003232858553009985 .00188053140746988 .00481754142538748
 .003178126447206185 .00200506540235312 .00495409124551938 .003072107011620945 .
00207329536130226 .00511844604783743 .002949420951850975 .00207842662452149 .005
32697154059147 .00280114349427701 .001993042920227465 .00553493784001563 .002661
079476922555 .00187172779258961 .00565990923868937 .00258050295067098 .001704850
416507985 .00574193831867721 .002529032684628035 .00153909324532781 .00576199553
5462 .002516615702906345 .00139022792698365 .0057344742671033 .00253367029587803
5 .00125851981886529 .0056680032763719 .002575374735816765 .00114712623412087 .0
0556355623003505 .002642393940923965 .001065858329386696 .00541994617314846 .002
737585147662055 .001032493634114328 .00523541588336229 .002865255390308585 41 1
 332 H?.001032493634114328 .00523541588336229 .002865255390308585 204 80 333 4 3
.75809202617064 .01596750636588565 0 .0160347446096914 3.784522591387015 .015922
55561762545 5.86715443762314 .01587955993361695 3.80754986880827 .01578922473133
375 5.43545652681009 .015739809849575 3.818608226912635 .0156548347138492 5.1311
9012070366 .01567121574014385 3.823772590552325 .01551641951316105 4.85689632210
297 .0156388555582952 3.82383916834077 .01536827495017065 4.57483727535431 .0156
384370288309 3.8192602652656 .0152379937878326 4.31789233085483 .01566714144699
 3.81045637608081 .0151194685925301 4.05726156164697 .0157218735527938 3.7931168
93806095 .01499493459764688 3.7047392467565 .01582789298837905 3.772545589372355
 .01492670463869774 3.36542218516678 .01595057904814905 3.746881430576105 .01492
15733754785 2.96696792502448 .016098856505723 3.721732302279195 .015006957079772
55 2.537055559704495 .01623892052307745 3.706818115823895 .0151282722074104 2.20
5022437956745 .016319497049329 3.697105128268805 .015295149583492 1.850304671119
785 .01637096731537195 3.694739103558875 .0154609067546722 1.532124333497055 .01
638338429709365 3.697986502797705 .01560977207301635 1.243849213859748 .01636632
970412195 3.70585706402091 .0157414801811347 .962967679503346 .01632462526418325
 3.71830424053802 .01585287376587915 .672173728975342 .01625760605907605 3.73558
5384007515 .0159341416706133 .35775243744091 .01616241485233795 3.75809202617064
 .01596750636588565 0 .0160347446096914 82 3 314 18 3 1 82 3 303 20 13 1 81 1 24
2 1474 31 240 0 0 259 293 593 82 3 296 20 12 1 81 1 259 1473 31 257 0 0 279 242
 594 82 3 593 20 11 1 81 1 279 1472 31 277 0 0 287 259 595 82 3 594 20 10 1 81 1
 287 1471 31 285 0 0 248 279 596 82 3 595 20 9 1 81 1 248 1470 31 246 0 0 252 28
7 597 82 3 596 20 8 1 81 1 252 1469 31 250 0 0 273 248 598 82 3 597 20 7 1 81 1
 273 1468 31 271 0 0 276 252 599 82 3 598 20 6 1 81 1 276 1467 31 274 0 0 230 27
3 600 82 3 599 20 5 1 81 1 230 1466 31 228 0 0 269 276 601 82 3 600 20 4 1 81 1
 269 1465 31 27 0 0 290 230 602 82 3 601 20 3 1 81 1 290 1464 31 289 0 0 283 269
 603 82 3 602 20 2 1 81 1 283 1463 31 281 0 0 91 290 604 82 3 603 20 1 1 81 1 91
 1462 31 89 0 0 49 283 605 82 3 604 20 0 1 81 1 49 1461 31 42 0 0 87 91 606 82 3
 605 20 15 0 81 1 87 1460 31 85 0 0 55 49 607 82 3 606 20 14 0 81 1 55 1459 31 5
1 0 0 79 87 608 82 3 607 20 13 0 81 1 79 1458 31 77 0 0 63 55 609 82 3 608 20 12
 0 81 1 63 1457 31 61 0 0 83 79 610 82 3 609 20 11 0 81 1 83 1456 31 81 0 0 59 6
3 611 82 3 610 20 10 0 81 1 59 1455 31 57 0 0 75 83 612 82 3 611 20 9 0 81 1 75
 1454 31 73 0 0 71 59 613 82 3 612 20 8 0 81 1 71 1453 31 69 0 0 98 75 614 82 3
 613 20 7 0 81 1 98 1452 31 96 0 0 67 71 615 82 3 614 20 6 0 81 1 67 1451 31 65
 0 0 43 98 616 82 3 615 20 5 0 81 1 43 1450 31 93 0 0 40 67 617 82 3 616 20 4 0
 82 3 617 20 3 0 17 145 0 158 168 152 139 157 169 0 174 +82 3 180 6 4 1 82 3 150
 14 0 0 81 1 33 1448 31 100 0 0 29 40 618 82 3 618 20 1 0 82 3 44 20 2 0 82 3 34
 20 0 0 19 18 196 0 1 0 10 6 0 S0 74 4 CI16 index_map_offset0 0 1 dCCZ20 16 5 0
 0 371 511 14 2 433 0 0 0 0 0 0 0 0 0 0 0 0 0 0 0 80 1 13 370 619 8040 0 0 0 0 3
 5 0 0 0 TTTFFFFFFFFFFFFF2 83 3 15 .615686274509804 .811764705882353 .9294117647
05882 79 17 619 SDL/TYSA_COLOUR_21 0 
