%TF.GenerationSoftware,Altium Limited,Altium Designer,24.3.1 (35)*%
G04 Layer_Physical_Order=2*
G04 Layer_Color=16711680*
%FSLAX45Y45*%
%MOMM*%
%TF.SameCoordinates,7C6FA559-6846-49D2-A138-5929247D84D2*%
%TF.FilePolarity,Positive*%
%TF.FileFunction,Copper,L2,Bot,Signal*%
%TF.Part,Single*%
G01*
G75*
%TA.AperFunction,ComponentPad*%
%ADD10C,2.25000*%
%ADD11C,1.60000*%
%TA.AperFunction,Conductor*%
%ADD12C,1.01600*%
%TA.AperFunction,NonConductor*%
%ADD13C,0.25400*%
G36*
X7200900Y7162800D02*
X7188200Y7150100D01*
Y2578100D01*
X4876767D01*
Y2832051D01*
X4804746D01*
X4803074Y2844751D01*
X4815883Y2848183D01*
X4839917Y2862059D01*
X4859541Y2881683D01*
X4873417Y2905717D01*
X4880600Y2932524D01*
Y2960276D01*
X4873417Y2987083D01*
X4859541Y3011117D01*
X4852058Y3018601D01*
Y3703102D01*
X4867647Y3718691D01*
X4879861Y3734609D01*
X4887539Y3753145D01*
X4890158Y3773038D01*
Y4933864D01*
X5065829Y5109536D01*
X5074545Y5107200D01*
X5110855D01*
X5145927Y5116598D01*
X5177373Y5134752D01*
X5203048Y5160427D01*
X5221202Y5191873D01*
X5230600Y5226945D01*
Y5263255D01*
X5221202Y5298327D01*
X5203048Y5329773D01*
X5177373Y5355448D01*
X5145927Y5373602D01*
X5110855Y5383000D01*
X5090391D01*
X5085131Y5395700D01*
X5784773Y6095342D01*
X6734999D01*
X6742483Y6087859D01*
X6766517Y6073983D01*
X6793324Y6066800D01*
X6821076D01*
X6847883Y6073983D01*
X6871917Y6087859D01*
X6891541Y6107483D01*
X6905417Y6131517D01*
X6912600Y6158324D01*
Y6186076D01*
X6905417Y6212883D01*
X6891541Y6236917D01*
X6871917Y6256541D01*
X6847883Y6270417D01*
X6821076Y6277600D01*
X6793324D01*
X6766517Y6270417D01*
X6742483Y6256541D01*
X6734999Y6249058D01*
X5752940D01*
X5752938Y6249058D01*
X5733045Y6246439D01*
X5714509Y6238761D01*
X5698591Y6226547D01*
X5698590Y6226546D01*
X4747902Y5275858D01*
X3942860D01*
X3938348Y5283673D01*
X3914078Y5307942D01*
X3916065Y5320642D01*
X4083062D01*
X4102955Y5323261D01*
X4121491Y5330939D01*
X4137409Y5343153D01*
X4292698Y5498443D01*
X4778901D01*
X4798793Y5501061D01*
X4817329Y5508740D01*
X4833247Y5520954D01*
X4931147Y5618853D01*
X4943361Y5634771D01*
X4951039Y5653307D01*
X4953658Y5673200D01*
X4953658Y5673202D01*
Y6152069D01*
X4966358Y6152901D01*
X4967661Y6143000D01*
X4975339Y6124463D01*
X4987553Y6108545D01*
X5058992Y6037107D01*
X5049600Y6002055D01*
Y5965745D01*
X5058998Y5930672D01*
X5077153Y5899227D01*
X5102827Y5873552D01*
X5134273Y5855397D01*
X5169345Y5846000D01*
X5205655D01*
X5240728Y5855397D01*
X5272173Y5873552D01*
X5297848Y5899227D01*
X5316003Y5930672D01*
X5325400Y5965745D01*
Y6002055D01*
X5316003Y6037127D01*
X5297848Y6068573D01*
X5272173Y6094247D01*
X5240728Y6112402D01*
X5205655Y6121800D01*
X5191685D01*
X5118758Y6194728D01*
Y6671499D01*
X5126241Y6678983D01*
X5140117Y6703017D01*
X5147300Y6729824D01*
Y6757576D01*
X5140117Y6784383D01*
X5126241Y6808417D01*
X5106617Y6828041D01*
X5082583Y6841917D01*
X5055776Y6849100D01*
X5028024D01*
X5001217Y6841917D01*
X4977183Y6828041D01*
X4957559Y6808417D01*
X4943683Y6784383D01*
X4936500Y6757576D01*
Y6729824D01*
X4943683Y6703017D01*
X4957559Y6678983D01*
X4965042Y6671499D01*
Y6206872D01*
X4952342Y6206040D01*
X4951039Y6215941D01*
X4943361Y6234477D01*
X4931147Y6250395D01*
X4864758Y6316784D01*
Y6671499D01*
X4872241Y6678983D01*
X4886117Y6703017D01*
X4893300Y6729824D01*
Y6757576D01*
X4886117Y6784383D01*
X4872241Y6808417D01*
X4852617Y6828041D01*
X4828583Y6841917D01*
X4801776Y6849100D01*
X4774024D01*
X4747217Y6841917D01*
X4723183Y6828041D01*
X4703559Y6808417D01*
X4689683Y6784383D01*
X4682500Y6757576D01*
Y6729824D01*
X4689683Y6703017D01*
X4703559Y6678983D01*
X4711042Y6671499D01*
Y6284948D01*
X4713661Y6265056D01*
X4721339Y6246519D01*
X4733553Y6230602D01*
X4799942Y6164213D01*
Y5705035D01*
X4747065Y5652158D01*
X4260863D01*
X4256951Y5651643D01*
X4248577Y5661191D01*
X4253200Y5678445D01*
Y5714755D01*
X4243803Y5749827D01*
X4225648Y5781273D01*
X4199973Y5806947D01*
X4168528Y5825102D01*
X4133455Y5834500D01*
X4097145D01*
X4062073Y5825102D01*
X4030627Y5806947D01*
X4004953Y5781273D01*
X3986798Y5749827D01*
X3977400Y5714755D01*
Y5678445D01*
X3986798Y5643373D01*
X4004953Y5611927D01*
X4030627Y5586252D01*
X4062073Y5568098D01*
X4097145Y5558700D01*
X4117609D01*
X4122869Y5546000D01*
X4051227Y5474358D01*
X3552016D01*
X3532124Y5471739D01*
X3513587Y5464061D01*
X3497669Y5451847D01*
X3497669Y5451846D01*
X3438153Y5392331D01*
X3425939Y5376413D01*
X3418261Y5357876D01*
X3415642Y5337984D01*
Y4959900D01*
X3418261Y4940008D01*
X3425939Y4921471D01*
X3438153Y4905554D01*
X3692436Y4651271D01*
X3690100Y4642555D01*
Y4606245D01*
X3699498Y4571172D01*
X3717653Y4539727D01*
X3743328Y4514052D01*
X3774773Y4495898D01*
X3809845Y4486500D01*
X3846155D01*
X3881228Y4495898D01*
X3912673Y4514052D01*
X3938348Y4539727D01*
X3956503Y4571172D01*
X3965900Y4606245D01*
Y4642555D01*
X3956503Y4677627D01*
X3938348Y4709073D01*
X3912673Y4734747D01*
X3881228Y4752902D01*
X3846155Y4762300D01*
X3809845D01*
X3801129Y4759964D01*
X3569358Y4991736D01*
Y5306148D01*
X3583851Y5320642D01*
X3739935D01*
X3741922Y5307942D01*
X3717653Y5283673D01*
X3699498Y5252227D01*
X3690100Y5217155D01*
Y5180845D01*
X3699498Y5145773D01*
X3717653Y5114327D01*
X3743328Y5088653D01*
X3774773Y5070498D01*
X3809845Y5061100D01*
X3846155D01*
X3881228Y5070498D01*
X3912673Y5088653D01*
X3938348Y5114327D01*
X3942860Y5122142D01*
X4779738D01*
X4799630Y5124761D01*
X4818167Y5132439D01*
X4834084Y5144653D01*
X4942100Y5252669D01*
X4954800Y5247409D01*
Y5226945D01*
X4957136Y5218229D01*
X4758953Y5020047D01*
X4746739Y5004129D01*
X4739061Y4985592D01*
X4736442Y4965700D01*
Y3925853D01*
X4724175Y3922566D01*
X4723248Y3924173D01*
X4697573Y3949848D01*
X4666128Y3968002D01*
X4631055Y3977400D01*
X4594745D01*
X4559673Y3968002D01*
X4528227Y3949848D01*
X4509158Y3930778D01*
X4496458Y3936038D01*
Y4108364D01*
X4569547Y4181453D01*
X4581761Y4197371D01*
X4589439Y4215908D01*
X4592058Y4235800D01*
Y4796840D01*
X4599873Y4801352D01*
X4625548Y4827027D01*
X4643702Y4858472D01*
X4653100Y4893545D01*
Y4929855D01*
X4643702Y4964927D01*
X4625548Y4996373D01*
X4599873Y5022047D01*
X4568427Y5040202D01*
X4533355Y5049600D01*
X4497045D01*
X4461973Y5040202D01*
X4430527Y5022047D01*
X4404853Y4996373D01*
X4386698Y4964927D01*
X4377300Y4929855D01*
Y4893545D01*
X4386698Y4858472D01*
X4404853Y4827027D01*
X4430527Y4801352D01*
X4438342Y4796840D01*
Y4267636D01*
X4365253Y4194547D01*
X4353039Y4178629D01*
X4345361Y4160092D01*
X4342742Y4140200D01*
Y3602002D01*
X4345361Y3582109D01*
X4353039Y3563573D01*
X4365253Y3547655D01*
X4444342Y3468566D01*
Y3018601D01*
X4436859Y3011117D01*
X4422983Y2987083D01*
X4415800Y2960276D01*
Y2932524D01*
X4422983Y2905717D01*
X4436859Y2881683D01*
X4456483Y2862059D01*
X4480517Y2848183D01*
X4507324Y2841000D01*
X4535076D01*
X4561883Y2848183D01*
X4585917Y2862059D01*
X4605541Y2881683D01*
X4619417Y2905717D01*
X4626600Y2932524D01*
Y2960276D01*
X4619417Y2987083D01*
X4605541Y3011117D01*
X4598058Y3018601D01*
Y3500402D01*
X4595439Y3520294D01*
X4587761Y3538831D01*
X4575547Y3554748D01*
X4575546Y3554749D01*
X4496458Y3633837D01*
Y3742962D01*
X4509158Y3748222D01*
X4528227Y3729153D01*
X4559673Y3710998D01*
X4594745Y3701600D01*
X4631055D01*
X4666128Y3710998D01*
X4685642Y3722265D01*
X4698342Y3714932D01*
Y3018601D01*
X4690859Y3011117D01*
X4676983Y2987083D01*
X4669800Y2960276D01*
Y2932524D01*
X4676983Y2905717D01*
X4690859Y2881683D01*
X4710483Y2862059D01*
X4734517Y2848183D01*
X4747326Y2844751D01*
X4745654Y2832051D01*
X4673600D01*
X4673567Y2819351D01*
X4470400D01*
Y2578100D01*
X2578100D01*
X2565400Y2590800D01*
Y7175500D01*
X7188200D01*
X7200900Y7162800D01*
D02*
G37*
%LPC*%
G36*
X4927600Y7137351D02*
X4914900Y7137351D01*
X4724400D01*
Y6883400D01*
X4914900D01*
X4927567Y6883400D01*
X4940267Y6883400D01*
X5130767D01*
Y7137351D01*
X4940267D01*
X4927600Y7137351D01*
D02*
G37*
G36*
X5309776Y6849100D02*
X5308600D01*
Y6756400D01*
X5401300D01*
Y6757576D01*
X5394117Y6784383D01*
X5380241Y6808417D01*
X5360617Y6828041D01*
X5336583Y6841917D01*
X5309776Y6849100D01*
D02*
G37*
G36*
X5283200D02*
X5282024D01*
X5255217Y6841917D01*
X5231183Y6828041D01*
X5211559Y6808417D01*
X5197683Y6784383D01*
X5190500Y6757576D01*
Y6756400D01*
X5283200D01*
Y6849100D01*
D02*
G37*
G36*
X5401300Y6731000D02*
X5308600D01*
Y6638300D01*
X5309776D01*
X5336583Y6645483D01*
X5360617Y6659359D01*
X5380241Y6678983D01*
X5394117Y6703017D01*
X5401300Y6729824D01*
Y6731000D01*
D02*
G37*
G36*
X5283200D02*
X5190500D01*
Y6729824D01*
X5197683Y6703017D01*
X5211559Y6678983D01*
X5231183Y6659359D01*
X5255217Y6645483D01*
X5282024Y6638300D01*
X5283200D01*
Y6731000D01*
D02*
G37*
G36*
X3099976Y6239500D02*
X3098800D01*
Y6146800D01*
X3191500D01*
Y6147976D01*
X3184317Y6174783D01*
X3170441Y6198817D01*
X3150817Y6218441D01*
X3126783Y6232317D01*
X3099976Y6239500D01*
D02*
G37*
G36*
X3073400D02*
X3072224D01*
X3045417Y6232317D01*
X3021383Y6218441D01*
X3001759Y6198817D01*
X2987883Y6174783D01*
X2980700Y6147976D01*
Y6146800D01*
X3073400D01*
Y6239500D01*
D02*
G37*
G36*
X3191500Y6121400D02*
X3098800D01*
Y6028700D01*
X3099976D01*
X3126783Y6035883D01*
X3150817Y6049759D01*
X3170441Y6069383D01*
X3184317Y6093417D01*
X3191500Y6120224D01*
Y6121400D01*
D02*
G37*
G36*
X3073400D02*
X2980700D01*
Y6120224D01*
X2987883Y6093417D01*
X3001759Y6069383D01*
X3021383Y6049759D01*
X3045417Y6035883D01*
X3072224Y6028700D01*
X3073400D01*
Y6121400D01*
D02*
G37*
G36*
X4631055Y6121800D02*
X4594745D01*
X4559673Y6112402D01*
X4528227Y6094247D01*
X4502553Y6068573D01*
X4498041Y6060757D01*
X3329600D01*
X3309708Y6058139D01*
X3291171Y6050461D01*
X3275253Y6038246D01*
X3275253Y6038245D01*
X3205139Y5968132D01*
X3144424D01*
X3126783Y5978317D01*
X3099976Y5985500D01*
X3072224D01*
X3045417Y5978317D01*
X3021383Y5964441D01*
X3001759Y5944817D01*
X2987883Y5920783D01*
X2980700Y5893976D01*
Y5866224D01*
X2987883Y5839417D01*
X3001759Y5815383D01*
X3021383Y5795759D01*
X3045417Y5781883D01*
X3072224Y5774700D01*
X3099976D01*
X3126783Y5781883D01*
X3150817Y5795759D01*
X3169475Y5814417D01*
X3236974D01*
X3256866Y5817035D01*
X3275403Y5824714D01*
X3291321Y5836928D01*
X3361435Y5907042D01*
X4498041D01*
X4502553Y5899227D01*
X4528227Y5873552D01*
X4559673Y5855397D01*
X4594745Y5846000D01*
X4631055D01*
X4666128Y5855397D01*
X4697573Y5873552D01*
X4723248Y5899227D01*
X4741403Y5930672D01*
X4750800Y5965745D01*
Y6002055D01*
X4741403Y6037127D01*
X4723248Y6068573D01*
X4697573Y6094247D01*
X4666128Y6112402D01*
X4631055Y6121800D01*
D02*
G37*
G36*
X6821076Y6023600D02*
X6793324D01*
X6766517Y6016417D01*
X6742483Y6002541D01*
X6734999Y5995058D01*
X5906700D01*
X5886808Y5992439D01*
X5868271Y5984761D01*
X5852354Y5972547D01*
X5711971Y5832164D01*
X5703255Y5834500D01*
X5666945D01*
X5631873Y5825102D01*
X5600427Y5806947D01*
X5574753Y5781273D01*
X5556598Y5749827D01*
X5547200Y5714755D01*
Y5678445D01*
X5556598Y5643373D01*
X5574753Y5611927D01*
X5600427Y5586252D01*
X5631873Y5568098D01*
X5666945Y5558700D01*
X5703255D01*
X5738328Y5568098D01*
X5769773Y5586252D01*
X5795448Y5611927D01*
X5813603Y5643373D01*
X5823000Y5678445D01*
Y5714755D01*
X5820665Y5723471D01*
X5938536Y5841342D01*
X6734999D01*
X6742483Y5833859D01*
X6766517Y5819983D01*
X6793324Y5812800D01*
X6821076D01*
X6847883Y5819983D01*
X6871917Y5833859D01*
X6891541Y5853483D01*
X6905417Y5877517D01*
X6912600Y5904324D01*
Y5932076D01*
X6905417Y5958883D01*
X6891541Y5982917D01*
X6871917Y6002541D01*
X6847883Y6016417D01*
X6821076Y6023600D01*
D02*
G37*
G36*
X7137367Y6311851D02*
X6934200D01*
Y6070551D01*
X6934200Y6057900D01*
X6934200Y6045200D01*
Y5803900D01*
X7137367D01*
Y6045200D01*
X7137367Y6057851D01*
X7137367Y6070551D01*
Y6311851D01*
D02*
G37*
G36*
X6821076Y5769600D02*
X6819900D01*
Y5676900D01*
X6912600D01*
Y5678076D01*
X6905417Y5704883D01*
X6891541Y5728917D01*
X6871917Y5748541D01*
X6847883Y5762417D01*
X6821076Y5769600D01*
D02*
G37*
G36*
X6794500D02*
X6793324D01*
X6766517Y5762417D01*
X6742483Y5748541D01*
X6722859Y5728917D01*
X6708983Y5704883D01*
X6701800Y5678076D01*
Y5676900D01*
X6794500D01*
Y5769600D01*
D02*
G37*
G36*
X6912600Y5651500D02*
X6819900D01*
Y5558800D01*
X6821076D01*
X6847883Y5565983D01*
X6871917Y5579859D01*
X6891541Y5599483D01*
X6905417Y5623517D01*
X6912600Y5650324D01*
Y5651500D01*
D02*
G37*
G36*
X6794500D02*
X6701800D01*
Y5650324D01*
X6708983Y5623517D01*
X6722859Y5599483D01*
X6742483Y5579859D01*
X6766517Y5565983D01*
X6793324Y5558800D01*
X6794500D01*
Y5651500D01*
D02*
G37*
G36*
X2946367Y6007051D02*
X2743200D01*
Y5765751D01*
X2743200Y5753100D01*
X2743200Y5740400D01*
Y5499100D01*
X2946367D01*
Y5740400D01*
X2946367Y5753051D01*
X2946367Y5765751D01*
Y6007051D01*
D02*
G37*
G36*
X5990555Y5336900D02*
X5954245D01*
X5919173Y5327502D01*
X5887727Y5309348D01*
X5862053Y5283673D01*
X5843898Y5252227D01*
X5834500Y5217155D01*
Y5180845D01*
X5843898Y5145773D01*
X5862053Y5114327D01*
X5887727Y5088653D01*
X5919173Y5070498D01*
X5954245Y5061100D01*
X5990555D01*
X6025628Y5070498D01*
X6057073Y5088653D01*
X6082748Y5114327D01*
X6100902Y5145773D01*
X6110300Y5180845D01*
Y5217155D01*
X6100902Y5252227D01*
X6082748Y5283673D01*
X6057073Y5309348D01*
X6025628Y5327502D01*
X5990555Y5336900D01*
D02*
G37*
G36*
Y4762300D02*
X5985100D01*
Y4637100D01*
X6110300D01*
Y4642555D01*
X6100902Y4677627D01*
X6082748Y4709073D01*
X6057073Y4734747D01*
X6025628Y4752902D01*
X5990555Y4762300D01*
D02*
G37*
G36*
X5959700D02*
X5954245D01*
X5919173Y4752902D01*
X5887727Y4734747D01*
X5862053Y4709073D01*
X5843898Y4677627D01*
X5834500Y4642555D01*
Y4637100D01*
X5959700D01*
Y4762300D01*
D02*
G37*
G36*
X5110855Y4716200D02*
X5105400D01*
Y4591000D01*
X5230600D01*
Y4596455D01*
X5221202Y4631527D01*
X5203048Y4662973D01*
X5177373Y4688647D01*
X5145927Y4706802D01*
X5110855Y4716200D01*
D02*
G37*
G36*
X5080000D02*
X5074545D01*
X5039473Y4706802D01*
X5008027Y4688647D01*
X4982352Y4662973D01*
X4964198Y4631527D01*
X4954800Y4596455D01*
Y4591000D01*
X5080000D01*
Y4716200D01*
D02*
G37*
G36*
X6110300Y4611700D02*
X5985100D01*
Y4486500D01*
X5990555D01*
X6025628Y4495898D01*
X6057073Y4514052D01*
X6082748Y4539727D01*
X6100902Y4571172D01*
X6110300Y4606245D01*
Y4611700D01*
D02*
G37*
G36*
X5959700D02*
X5834500D01*
Y4606245D01*
X5843898Y4571172D01*
X5862053Y4539727D01*
X5887727Y4514052D01*
X5919173Y4495898D01*
X5954245Y4486500D01*
X5959700D01*
Y4611700D01*
D02*
G37*
G36*
X5230600Y4565600D02*
X5105400D01*
Y4440400D01*
X5110855D01*
X5145927Y4449798D01*
X5177373Y4467952D01*
X5203048Y4493627D01*
X5221202Y4525072D01*
X5230600Y4560145D01*
Y4565600D01*
D02*
G37*
G36*
X5080000D02*
X4954800D01*
Y4560145D01*
X4964198Y4525072D01*
X4982352Y4493627D01*
X5008027Y4467952D01*
X5039473Y4449798D01*
X5074545Y4440400D01*
X5080000D01*
Y4565600D01*
D02*
G37*
G36*
X5703255Y4264700D02*
X5697800D01*
Y4139500D01*
X5823000D01*
Y4144955D01*
X5813603Y4180027D01*
X5795448Y4211473D01*
X5769773Y4237147D01*
X5738328Y4255302D01*
X5703255Y4264700D01*
D02*
G37*
G36*
X5672400D02*
X5666945D01*
X5631873Y4255302D01*
X5600427Y4237147D01*
X5574753Y4211473D01*
X5556598Y4180027D01*
X5547200Y4144955D01*
Y4139500D01*
X5672400D01*
Y4264700D01*
D02*
G37*
G36*
X5823000Y4114100D02*
X5697800D01*
Y3988900D01*
X5703255D01*
X5738328Y3998298D01*
X5769773Y4016452D01*
X5795448Y4042127D01*
X5813603Y4073572D01*
X5823000Y4108645D01*
Y4114100D01*
D02*
G37*
G36*
X5672400D02*
X5547200D01*
Y4108645D01*
X5556598Y4073572D01*
X5574753Y4042127D01*
X5600427Y4016452D01*
X5631873Y3998298D01*
X5666945Y3988900D01*
X5672400D01*
Y4114100D01*
D02*
G37*
G36*
X3099976Y5731500D02*
X3072224D01*
X3045417Y5724317D01*
X3021383Y5710441D01*
X3001759Y5690817D01*
X2987883Y5666783D01*
X2980700Y5639976D01*
Y5612224D01*
X2987883Y5585417D01*
X3001759Y5561383D01*
X3009242Y5553899D01*
Y4406900D01*
X3011861Y4387008D01*
X3019539Y4368471D01*
X3031753Y4352553D01*
X3311853Y4072454D01*
X3311853Y4072453D01*
X3327771Y4060239D01*
X3346308Y4052561D01*
X3366200Y4049942D01*
X4000441D01*
X4004953Y4042127D01*
X4030627Y4016452D01*
X4062073Y3998298D01*
X4097145Y3988900D01*
X4133455D01*
X4168528Y3998298D01*
X4199973Y4016452D01*
X4225648Y4042127D01*
X4243803Y4073572D01*
X4253200Y4108645D01*
Y4144955D01*
X4243803Y4180027D01*
X4225648Y4211473D01*
X4199973Y4237147D01*
X4168528Y4255302D01*
X4133455Y4264700D01*
X4097145D01*
X4062073Y4255302D01*
X4030627Y4237147D01*
X4018570Y4225090D01*
X4015234Y4224650D01*
X3996698Y4216972D01*
X3980780Y4204758D01*
X3979935Y4203658D01*
X3398035D01*
X3162958Y4438736D01*
Y5553899D01*
X3170441Y5561383D01*
X3184317Y5585417D01*
X3191500Y5612224D01*
Y5639976D01*
X3184317Y5666783D01*
X3170441Y5690817D01*
X3150817Y5710441D01*
X3126783Y5724317D01*
X3099976Y5731500D01*
D02*
G37*
G36*
X5205655Y3977400D02*
X5200200D01*
Y3852200D01*
X5325400D01*
Y3857655D01*
X5316003Y3892728D01*
X5297848Y3924173D01*
X5272173Y3949848D01*
X5240728Y3968002D01*
X5205655Y3977400D01*
D02*
G37*
G36*
X5174800D02*
X5169345D01*
X5134273Y3968002D01*
X5102827Y3949848D01*
X5077153Y3924173D01*
X5058998Y3892728D01*
X5049600Y3857655D01*
Y3852200D01*
X5174800D01*
Y3977400D01*
D02*
G37*
G36*
X5325400Y3826800D02*
X5200200D01*
Y3701600D01*
X5205655D01*
X5240728Y3710998D01*
X5272173Y3729153D01*
X5297848Y3754827D01*
X5316003Y3786273D01*
X5325400Y3821345D01*
Y3826800D01*
D02*
G37*
G36*
X5174800D02*
X5049600D01*
Y3821345D01*
X5058998Y3786273D01*
X5077153Y3754827D01*
X5102827Y3729153D01*
X5134273Y3710998D01*
X5169345Y3701600D01*
X5174800D01*
Y3826800D01*
D02*
G37*
G36*
X5043076Y3051800D02*
X5041900D01*
Y2959100D01*
X5134600D01*
Y2960276D01*
X5127417Y2987083D01*
X5113541Y3011117D01*
X5093917Y3030741D01*
X5069883Y3044617D01*
X5043076Y3051800D01*
D02*
G37*
G36*
X5016500D02*
X5015324D01*
X4988517Y3044617D01*
X4964483Y3030741D01*
X4944859Y3011117D01*
X4930983Y2987083D01*
X4923800Y2960276D01*
Y2959100D01*
X5016500D01*
Y3051800D01*
D02*
G37*
G36*
X5134600Y2933700D02*
X5041900D01*
Y2841000D01*
X5043076D01*
X5069883Y2848183D01*
X5093917Y2862059D01*
X5113541Y2881683D01*
X5127417Y2905717D01*
X5134600Y2932524D01*
Y2933700D01*
D02*
G37*
G36*
X5016500D02*
X4923800D01*
Y2932524D01*
X4930983Y2905717D01*
X4944859Y2881683D01*
X4964483Y2862059D01*
X4988517Y2848183D01*
X5015324Y2841000D01*
X5016500D01*
Y2933700D01*
D02*
G37*
%LPD*%
D10*
X4115300Y4126800D02*
D03*
X3828000Y4624400D02*
D03*
Y5199000D02*
D03*
X4115300Y5696600D02*
D03*
X4612900Y5983900D02*
D03*
X5187500D02*
D03*
X5685100Y5696600D02*
D03*
X5972400Y5199000D02*
D03*
Y4624400D02*
D03*
X5685100Y4126800D02*
D03*
X5187500Y3839500D02*
D03*
X4612900D02*
D03*
X4515200Y4911700D02*
D03*
X5092700Y5245100D02*
D03*
Y4578300D02*
D03*
D11*
X4521200Y2946400D02*
D03*
X4775200D02*
D03*
X5029200D02*
D03*
X6807200Y5664200D02*
D03*
Y5918200D02*
D03*
Y6172200D02*
D03*
X5295900Y6743700D02*
D03*
X5041900D02*
D03*
X4787900D02*
D03*
X3086100Y6134100D02*
D03*
Y5880100D02*
D03*
Y5626100D02*
D03*
D12*
X3552016Y5397500D02*
X4083062D01*
X4260863Y5575300D01*
X3492500Y4959900D02*
Y5337984D01*
X3552016Y5397500D01*
X3492500Y4959900D02*
X3828000Y4624400D01*
X4778901Y5575300D02*
X4876800Y5673200D01*
X4260863Y5575300D02*
X4778901D01*
X3828000Y5199000D02*
X4779738D01*
X5752938Y6172200D02*
X6807200D01*
X4779738Y5199000D02*
X5752938Y6172200D01*
X5187500Y5983900D02*
Y6017292D01*
X5041900Y6162892D02*
Y6743700D01*
Y6162892D02*
X5187500Y6017292D01*
X5906700Y5918200D02*
X6807200D01*
X5685100Y5696600D02*
X5906700Y5918200D01*
X4876800Y5673200D02*
Y6196048D01*
X4787900Y6284948D02*
Y6743700D01*
Y6284948D02*
X4876800Y6196048D01*
X4775200Y3734938D02*
X4813300Y3773038D01*
X4775200Y2946400D02*
Y3734938D01*
X4813300Y3773038D02*
Y4965700D01*
X5092700Y5245100D01*
X4521200Y2946400D02*
Y3500402D01*
X4419600Y3602002D02*
X4521200Y3500402D01*
X4419600Y3602002D02*
Y4140200D01*
X4515200Y4235800D01*
Y4911700D01*
X3236974Y5891274D02*
X3329600Y5983900D01*
X4612900D01*
X3097274Y5891274D02*
X3236974D01*
X3086100Y5880100D02*
X3097274Y5891274D01*
X3086100Y4406900D02*
X3366200Y4126800D01*
X4115300D01*
X4035126Y4150412D02*
X4091689D01*
X3086100Y4406900D02*
Y5626100D01*
X4091689Y4150412D02*
X4115300Y4126800D01*
D13*
X6985000Y5854700D02*
Y6007051D01*
X7061175D01*
X7086567Y5981659D01*
Y5930875D01*
X7061175Y5905483D01*
X6985000D01*
X7035783D02*
X7086567Y5854700D01*
X6985000Y6261051D02*
Y6108700D01*
X7086567D01*
X4521200Y2768551D02*
Y2616200D01*
X4622767D01*
X4724400Y2628900D02*
Y2781251D01*
X4800575D01*
X4825967Y2755859D01*
Y2705075D01*
X4800575Y2679683D01*
X4724400D01*
X4775183D02*
X4825967Y2628900D01*
X4775200Y7086551D02*
Y6934200D01*
X4876767D01*
X4978400D02*
Y7086551D01*
X5054575D01*
X5079967Y7061159D01*
Y7010375D01*
X5054575Y6984983D01*
X4978400D01*
X5029183D02*
X5079967Y6934200D01*
X2794000Y5803900D02*
Y5956251D01*
X2870175D01*
X2895567Y5930859D01*
Y5880075D01*
X2870175Y5854683D01*
X2794000D01*
X2844783D02*
X2895567Y5803900D01*
X2794000Y5702251D02*
Y5549900D01*
X2895567D01*
%TF.MD5,45e8d8cbbfa926e6f10b667ff20a753c*%
M02*
