%TF.GenerationSoftware,Altium Limited,Altium Designer,24.3.1 (35)*%
G04 Layer_Color=65535*
%FSLAX45Y45*%
%MOMM*%
%TF.SameCoordinates,E8A12EDD-E49B-488F-A359-F1DCA573E5E5*%
%TF.FilePolarity,Positive*%
%TF.FileFunction,Legend,Top*%
%TF.Part,Single*%
G01*
G75*
%TA.AperFunction,NonConductor*%
%ADD13C,0.25400*%
%ADD14C,0.20362*%
%ADD15C,0.12700*%
D13*
X6262500Y4911700D02*
G03*
X3537900Y4911700I-1362300J0D01*
G01*
D02*
G03*
X6262500Y4911700I1362300J0D01*
G01*
X3561047Y6581099D02*
X3535655Y6606491D01*
X3484872D01*
X3459480Y6581099D01*
Y6555707D01*
X3484872Y6530315D01*
X3535655D01*
X3561047Y6504923D01*
Y6479532D01*
X3535655Y6454140D01*
X3484872D01*
X3459480Y6479532D01*
X3611831Y6454140D02*
X3662614D01*
X3637223D01*
Y6606491D01*
X3611831Y6581099D01*
X4490695Y3307031D02*
X4439912D01*
X4414520Y3281639D01*
Y3180072D01*
X4439912Y3154680D01*
X4490695D01*
X4516087Y3180072D01*
Y3281639D01*
X4490695Y3307031D01*
X4566871D02*
Y3180072D01*
X4592263Y3154680D01*
X4643046D01*
X4668438Y3180072D01*
Y3307031D01*
X4719221D02*
X4820789D01*
X4770005D01*
Y3154680D01*
X6802087Y6532831D02*
X6751303D01*
X6776695D01*
Y6405872D01*
X6751303Y6380480D01*
X6725912D01*
X6700520Y6405872D01*
X6852871Y6507439D02*
X6878263Y6532831D01*
X6929046D01*
X6954438Y6507439D01*
Y6482047D01*
X6929046Y6456655D01*
X6903654D01*
X6929046D01*
X6954438Y6431263D01*
Y6405872D01*
X6929046Y6380480D01*
X6878263D01*
X6852871Y6405872D01*
X4782787Y7104331D02*
X4732003D01*
X4757395D01*
Y6977372D01*
X4732003Y6951980D01*
X4706612D01*
X4681220Y6977372D01*
X4935138Y6951980D02*
X4833571D01*
X4935138Y7053547D01*
Y7078939D01*
X4909746Y7104331D01*
X4858963D01*
X4833571Y7078939D01*
X3080987Y6494731D02*
X3030203D01*
X3055595D01*
Y6367772D01*
X3030203Y6342380D01*
X3004812D01*
X2979420Y6367772D01*
X3131771Y6342380D02*
X3182554D01*
X3157163D01*
Y6494731D01*
X3131771Y6469339D01*
D14*
X3888100Y3771400D02*
G03*
X3908500Y3771400I10200J0D01*
G01*
D02*
G03*
X3888100Y3771400I-10200J0D01*
G01*
D15*
X4396200Y3071400D02*
X5154200D01*
X4396200Y2821400D02*
X5154200D01*
X4396200D02*
Y3071400D01*
X5154200Y2821400D02*
Y3071400D01*
X6682200Y5539200D02*
Y6297200D01*
X6932200Y5539200D02*
Y6297200D01*
X6682200Y5539200D02*
X6932200D01*
X6682200Y6297200D02*
X6932200D01*
X4662900Y6618700D02*
X5420900D01*
X4662900Y6868700D02*
X5420900D01*
Y6618700D02*
Y6868700D01*
X4662900Y6618700D02*
Y6868700D01*
X3211100Y5501100D02*
Y6259100D01*
X2961100Y5501100D02*
Y6259100D01*
X3211100D01*
X2961100Y5501100D02*
X3211100D01*
%TF.MD5,84e8ec59b7b5ebee88c3e8b2114ae24a*%
M02*
